<svg width="350" height="300" xmlns="http://www.w3.org/2000/svg"><rect width="350" height="300" fill="#0000FF" /><circle cx="25" cy="25" r="20" fill="#FFFFFF" /><circle cx="75" cy="25" r="20" fill="#FFFFFF" /><circle cx="125" cy="25" r="20" fill="#FFFFFF" /><circle cx="175" cy="25" r="20" fill="#FFFFFF" /><circle cx="225" cy="25" r="20" fill="#FFFFFF" /><circle cx="275" cy="25" r="20" fill="#FFFFFF" /><circle cx="325" cy="25" r="20" fill="#FFFFFF" /><circle cx="25" cy="75" r="20" fill="#FFFFFF" /><circle cx="75" cy="75" r="20" fill="#FFFFFF" /><circle cx="125" cy="75" r="20" fill="#FFFFFF" /><circle cx="175" cy="75" r="20" fill="#FFFFFF" /><circle cx="225" cy="75" r="20" fill="#FFFFFF" /><circle cx="275" cy="75" r="20" fill="#FFFFFF" /><circle cx="325" cy="75" r="20" fill="#FFFFFF" /><circle cx="25" cy="125" r="20" fill="#FFFFFF" /><circle cx="75" cy="125" r="20" fill="#FFFFFF" /><circle cx="125" cy="125" r="20" fill="#FFFFFF" /><circle cx="175" cy="125" r="20" fill="#FFFFFF" /><circle cx="225" cy="125" r="20" fill="#FFFFFF" /><circle cx="275" cy="125" r="20" fill="#FFFFFF" /><circle cx="325" cy="125" r="20" fill="#FFFFFF" /><circle cx="25" cy="175" r="20" fill="#FFFFFF" /><circle cx="75" cy="175" r="20" fill="#FFFFFF" /><circle cx="125" cy="175" r="20" fill="#FFFFFF" /><circle cx="175" cy="175" r="20" fill="#FFFFFF" /><circle cx="225" cy="175" r="20" fill="#FFFFFF" /><circle cx="275" cy="175" r="20" fill="#FFFFFF" /><circle cx="325" cy="175" r="20" fill="#FFFFFF" /><circle cx="25" cy="225" r="20" fill="#FFFFFF" /><circle cx="75" cy="225" r="20" fill="#FFFFFF" /><circle cx="125" cy="225" r="20" fill="#FFFFFF" /><circle cx="175" cy="225" r="20" fill="#FFFFFF" /><circle cx="225" cy="225" r="20" fill="#FFFFFF" /><circle cx="275" cy="225" r="20" fill="#FFFFFF" /><circle cx="325" cy="225" r="20" fill="#FFFFFF" /><circle cx="25" cy="275" r="20" fill="#FFFFFF" /><circle cx="75" cy="275" r="20" fill="#FFFFFF" /><circle cx="125" cy="275" r="20" fill="#FFFFFF" /><circle cx="175" cy="275" r="20" fill="#FFFFFF" /><circle cx="225" cy="275" r="20" fill="#FFFFFF" /><circle cx="275" cy="275" r="20" fill="#FFFFFF" /><circle cx="325" cy="275" r="20" fill="#FFFFFF" /></svg>
